<svg xmlns="http://www.w3.org/2000/svg" viewBox="0 0 64 64">
  <!-- 圆形背景 -->
  <circle cx="32" cy="32" r="30" fill="#1e40af" stroke="#3b82f6" stroke-width="2"/>

  <!-- CI/CD 流水线箭头（左侧） -->
  <path d="M 12 32 L 22 32 M 18 28 L 22 32 L 18 36" stroke="#60a5fa" stroke-width="2.5" stroke-linecap="round" stroke-linejoin="round" fill="none"/>

  <!-- K8s 容器六边形（中心） -->
  <path d="M 32 18 L 40 23 L 40 33 L 32 38 L 24 33 L 24 23 Z" fill="none" stroke="#93c5fd" stroke-width="2.2" stroke-linejoin="round"/>
  <circle cx="32" cy="28" r="1.5" fill="#dbeafe"/>
  <circle cx="28" cy="31" r="1.5" fill="#dbeafe"/>
  <circle cx="36" cy="31" r="1.5" fill="#dbeafe"/>

  <!-- 监控折线图（右侧） -->
  <polyline points="44,36 47,32 50,34 53,28" fill="none" stroke="#60a5fa" stroke-width="2.2" stroke-linecap="round" stroke-linejoin="round"/>
  <circle cx="44" cy="36" r="1.2" fill="#93c5fd"/>
  <circle cx="47" cy="32" r="1.2" fill="#93c5fd"/>
  <circle cx="50" cy="34" r="1.2" fill="#93c5fd"/>
  <circle cx="53" cy="28" r="1.2" fill="#93c5fd"/>

  <!-- 底部运维齿轮 -->
  <circle cx="32" cy="48" r="4" fill="none" stroke="#60a5fa" stroke-width="1.8"/>
  <circle cx="32" cy="48" r="1.5" fill="#93c5fd"/>
  <line x1="32" y1="44" x2="32" y2="42" stroke="#60a5fa" stroke-width="1.5"/>
  <line x1="32" y1="52" x2="32" y2="54" stroke="#60a5fa" stroke-width="1.5"/>
  <line x1="28" y1="48" x2="26" y2="48" stroke="#60a5fa" stroke-width="1.5"/>
  <line x1="36" y1="48" x2="38" y2="48" stroke="#60a5fa" stroke-width="1.5"/>
</svg>